<svg viewBox="0 0 64 64" xmlns="http://www.w3.org/2000/svg">
  <defs>
    <style>
      .clothes { fill: none; stroke: currentColor; stroke-width: 1.5; stroke-linecap: round; stroke-linejoin: round; }
      .fabric { fill: currentColor; opacity: 0.15; }
    </style>
  </defs>
  <!-- 
c -->
  <path class="clothes" d="M24 16 L24 20 Q24 24 28 24 L36 24 Q40 24 40 20 L40 16"/>
  <path class="clothes" d="M24 20 L20 20 L20 36 Q20 40 24 40 L40 40 Q44 40 44 36 L44 20 L40 20"/>
  <path class="fabric" d="M22 22 L42 22 L42 38 L22 38 Z"/>
  <!-- –P -->
  <path class="clothes" d="M20 24 L16 24 L16 32 L20 32"/>
  <path class="clothes" d="M44 24 L48 24 L48 32 L44 32"/>
</svg>
